<?xml version="1.0" standalone="no"?>
<!DOCTYPE svg PUBLIC "-//W3C//DTD SVG 20010904//EN"
 "http://www.w3.org/TR/2001/REC-SVG-20010904/DTD/svg10.dtd">
<svg version="1.0" xmlns="http://www.w3.org/2000/svg"
 width="1270.000000pt" height="1838.000000pt" viewBox="0 0 1270.000000 1838.000000"
 preserveAspectRatio="xMidYMid meet">
<metadata>
Created by potrace 1.16, written by Peter Selinger 2001-2019
</metadata>
<g transform="translate(0.000000,1838.000000) scale(0.100000,-0.100000)"
fill="#000000" stroke="none">
<path d="M11700 17985 l0 -85 31 0 c32 0 69 15 81 34 4 6 8 30 8 54 0 55 -26
82 -80 82 l-40 0 0 -85z"/>
<path d="M1262 18014 c-44 -31 -21 -94 40 -109 33 -8 52 -30 44 -50 -8 -22
-54 -19 -68 5 -15 23 -48 27 -48 5 0 -26 42 -55 80 -55 99 0 110 88 15 124
-50 19 -61 49 -23 62 16 5 27 1 39 -15 20 -24 49 -28 49 -7 0 22 -49 56 -79
56 -15 0 -37 -7 -49 -16z"/>
<path d="M2090 17920 c0 -103 1 -110 20 -110 17 0 20 7 20 40 0 33 3 40 20 40
13 0 27 -14 40 -40 13 -26 27 -40 40 -40 25 0 25 2 -2 50 -21 36 -22 39 -5 57
18 20 22 59 9 80 -11 18 -58 33 -103 33 l-39 0 0 -110z"/>
<path d="M1432 17958 c-7 -7 -12 -18 -12 -25 0 -15 26 -18 35 -3 9 15 42 12
49 -5 4 -11 -2 -15 -24 -15 -32 0 -70 -30 -70 -54 0 -30 30 -45 84 -45 l54 1
-6 67 c-2 36 -9 72 -15 79 -12 15 -79 16 -95 0z"/>
<path d="M1862 17958 c-7 -7 -12 -18 -12 -25 0 -15 26 -18 35 -3 9 15 42 12
49 -5 4 -11 -2 -15 -24 -15 -32 0 -70 -30 -70 -54 0 -30 30 -45 85 -45 l54 1
-6 67 c-3 36 -10 72 -16 79 -12 15 -79 16 -95 0z"/>
<path d="M2287 17952 c-24 -27 -22 -97 3 -122 25 -25 71 -26 99 -2 29 22 32
94 6 122 -24 26 -86 27 -108 2z"/>
<path d="M2612 17958 c-7 -7 -12 -18 -12 -25 0 -15 26 -18 35 -3 9 15 42 12
49 -5 4 -11 -2 -15 -24 -15 -32 0 -70 -30 -70 -54 0 -30 30 -45 85 -45 l54 1
-6 67 c-3 36 -10 72 -16 79 -12 15 -79 16 -95 0z"/>
<path d="M3601 17842 c-52 -26 -76 -65 -76 -122 0 -88 63 -140 168 -140 80 0
125 23 148 74 10 23 19 52 19 66 0 46 -35 105 -73 123 -47 23 -142 22 -186 -1z
m205 -36 c30 -30 34 -40 34 -86 0 -46 -4 -56 -34 -86 -33 -33 -36 -34 -116
-34 -80 0 -83 1 -116 34 -30 30 -34 40 -34 86 0 46 4 56 34 86 33 33 36 34
116 34 80 0 83 -1 116 -34z"/>
<path d="M7571 17402 c-52 -26 -76 -65 -76 -122 0 -57 24 -96 76 -122 47 -25
216 -25 266 -1 38 18 73 77 73 123 0 46 -35 105 -73 123 -50 24 -219 24 -266
-1z m285 -36 c30 -30 34 -40 34 -86 0 -46 -4 -56 -34 -86 l-34 -34 -122 0
-122 0 -34 34 c-30 30 -34 40 -34 86 0 46 4 56 34 86 l34 34 122 0 122 0 34
-34z"/>
<path d="M6065 17083 c-31 -7 -73 -52 -86 -90 -22 -67 12 -142 77 -169 46 -19
138 -18 181 3 38 18 73 77 73 123 0 46 -35 105 -73 123 -33 16 -124 21 -172
10z m191 -47 c30 -30 34 -40 34 -86 0 -46 -4 -56 -34 -86 -33 -33 -36 -34
-116 -34 -80 0 -83 1 -116 34 -30 30 -34 40 -34 86 0 46 4 56 34 86 33 33 36
34 116 34 80 0 83 -1 116 -34z"/>
<path d="M11851 16422 c-52 -26 -76 -65 -76 -122 0 -57 24 -96 76 -122 47 -25
216 -25 266 -1 38 18 73 77 73 123 0 46 -35 105 -73 123 -50 24 -219 24 -266
-1z m285 -36 c30 -30 34 -40 34 -86 0 -46 -4 -56 -34 -86 l-34 -34 -122 0
-122 0 -34 34 c-30 30 -34 40 -34 86 0 46 4 56 34 86 l34 34 122 0 122 0 34
-34z"/>
<path d="M2303 15607 c-29 -30 -30 -34 -16 -54 13 -19 13 -25 -1 -52 -49 -93
13 -181 127 -181 24 0 48 -5 55 -12 9 -9 15 -9 24 0 7 7 31 12 55 12 114 0
176 88 127 181 -14 27 -14 33 0 53 14 22 13 25 -17 54 -29 28 -34 29 -51 16
-25 -18 -63 -18 -99 1 -25 13 -31 13 -53 -1 -24 -17 -86 -13 -110 7 -7 5 -22
-3 -41 -24z m72 -7 c18 -7 40 -6 70 1 33 8 53 8 76 0 23 -8 43 -8 71 0 51 13
67 1 67 -54 0 -23 3 -68 7 -99 5 -53 4 -59 -22 -83 -29 -27 -67 -32 -214 -26
-121 5 -150 32 -136 123 4 24 8 61 9 83 3 64 18 76 72 55z"/>
<path d="M4061 15092 c-52 -26 -76 -65 -76 -122 0 -57 24 -96 76 -122 47 -25
216 -25 266 -1 38 18 73 77 73 123 0 46 -35 105 -73 123 -50 24 -219 24 -266
-1z m285 -36 c30 -30 34 -40 34 -86 0 -46 -4 -56 -34 -86 l-34 -34 -122 0
-122 0 -34 34 c-30 30 -34 40 -34 86 0 46 4 56 34 86 l34 34 122 0 122 0 34
-34z"/>
<path d="M4861 14492 c-52 -26 -76 -65 -76 -122 0 -57 24 -96 76 -122 47 -25
216 -25 266 -1 38 18 73 77 73 123 0 46 -35 105 -73 123 -50 24 -219 24 -266
-1z m285 -36 c30 -30 34 -40 34 -86 0 -46 -4 -56 -34 -86 l-34 -34 -122 0
-122 0 -34 34 c-30 30 -34 40 -34 86 0 46 4 56 34 86 l34 34 122 0 122 0 34
-34z"/>
<path d="M12201 14332 c-52 -26 -76 -65 -76 -122 0 -88 63 -140 168 -140 80 0
125 23 148 74 10 23 19 52 19 66 0 46 -35 105 -73 123 -47 23 -142 22 -186 -1z
m205 -36 c30 -30 34 -40 34 -86 0 -46 -4 -56 -34 -86 -33 -33 -36 -34 -116
-34 -80 0 -83 1 -116 34 -30 30 -34 40 -34 86 0 46 4 56 34 86 33 33 36 34
116 34 80 0 83 -1 116 -34z"/>
<path d="M7710 14161 c0 -81 55 -164 125 -190 34 -12 39 -11 83 16 58 36 82
77 89 153 l6 60 -152 0 -151 0 0 -39z"/>
<path d="M5791 13762 c-52 -26 -76 -65 -76 -122 0 -88 63 -140 168 -140 80 0
125 23 148 74 10 23 19 52 19 66 0 46 -35 105 -73 123 -47 23 -142 22 -186 -1z
m205 -36 c30 -30 34 -40 34 -86 0 -46 -4 -56 -34 -86 -33 -33 -36 -34 -116
-34 -80 0 -83 1 -116 34 -30 30 -34 40 -34 86 0 46 4 56 34 86 33 33 36 34
116 34 80 0 83 -1 116 -34z"/>
<path d="M111 13722 c-52 -26 -76 -65 -76 -122 0 -88 63 -140 168 -140 80 0
125 23 148 74 23 52 23 80 0 132 -12 27 -30 46 -54 57 -47 23 -142 22 -186 -1z
m205 -36 c30 -30 34 -40 34 -86 0 -46 -4 -56 -34 -86 -33 -33 -36 -34 -116
-34 -80 0 -83 1 -116 34 -30 30 -34 40 -34 86 0 46 4 56 34 86 33 33 36 34
116 34 80 0 83 -1 116 -34z"/>
<path d="M7720 12648 c0 -26 9 -57 26 -86 l26 -44 24 52 c13 29 24 54 24 56 0
2 -13 4 -30 4 -20 0 -30 5 -30 15 0 11 12 15 50 15 28 0 50 -4 50 -9 0 -15
-42 -105 -57 -122 -13 -15 -11 -19 14 -37 55 -38 97 -45 154 -27 93 31 149
101 149 186 l0 39 -200 0 -200 0 0 -42z"/>
<path d="M321 12633 c-5 -21 -15 -58 -21 -83 -6 -25 -13 -53 -16 -62 -3 -12 0
-18 9 -18 10 0 18 14 22 40 6 36 10 40 35 40 24 0 29 -5 34 -35 7 -34 22 -53
33 -41 4 3 1 23 -5 43 -10 33 -9 38 13 59 27 25 33 62 13 82 -7 7 -33 12 -60
12 -46 0 -47 -1 -57 -37z"/>
<path d="M334 12326 c-51 -36 -56 -120 -8 -132 58 -15 118 56 98 114 -11 32
-57 41 -90 18z"/>
<path d="M523 12042 c-33 -25 -47 -80 -28 -109 21 -32 60 -30 96 6 31 32 40
86 17 109 -17 17 -59 14 -85 -6z"/>
<path d="M10301 12042 c-50 -25 -75 -64 -77 -120 -4 -88 62 -142 172 -142 77
0 122 23 145 74 10 23 19 52 19 66 0 46 -35 105 -73 123 -47 23 -142 22 -186
-1z m205 -36 c30 -30 34 -40 34 -86 0 -46 -4 -56 -34 -86 -33 -33 -36 -34
-116 -34 -80 0 -83 1 -116 34 -30 30 -34 40 -34 86 0 46 4 56 34 86 33 33 36
34 116 34 80 0 83 -1 116 -34z"/>
<path d="M3942 11243 c2 -58 7 -88 16 -91 8 -2 12 8 12 32 0 50 33 50 57 1 9
-19 23 -35 30 -35 17 0 17 3 -7 43 -18 30 -19 36 -5 47 18 15 20 61 3 78 -7 7
-34 12 -60 12 l-49 0 3 -87z"/>
<path d="M5920 10518 c0 -75 51 -138 145 -179 50 -22 72 -20 135 9 78 37 120
98 120 173 l0 39 -200 0 -200 0 0 -42z"/>
<path d="M2481 10452 c-52 -26 -76 -65 -76 -122 0 -88 63 -140 168 -140 80 0
125 23 148 74 10 23 19 52 19 66 0 46 -35 105 -73 123 -47 23 -142 22 -186 -1z
m205 -36 c30 -30 34 -40 34 -86 0 -46 -4 -56 -34 -86 -33 -33 -36 -34 -116
-34 -80 0 -83 1 -116 34 -30 30 -34 40 -34 86 0 46 4 56 34 86 33 33 36 34
116 34 80 0 83 -1 116 -34z"/>
<path d="M10872 10445 c-86 -44 -128 -139 -103 -232 7 -23 42 -83 81 -135 39
-51 76 -113 84 -138 7 -25 18 -45 25 -45 7 0 23 26 35 57 13 32 51 94 85 139
66 87 86 141 77 203 -16 94 -86 161 -182 172 -40 4 -59 1 -102 -21z m133 -6
c58 -15 110 -67 124 -125 10 -40 9 -62 -5 -116 -3 -9 -34 -55 -69 -102 -35
-48 -69 -102 -76 -121 -16 -42 -25 -44 -34 -7 -3 15 -31 62 -62 103 -78 104
-84 113 -94 159 -20 87 34 181 118 207 49 15 47 15 98 2z"/>
<path d="M12040 10207 l0 -103 42 -1 c57 -3 78 17 78 73 0 55 -21 78 -67 71
-32 -6 -33 -5 -33 29 0 19 -4 34 -10 34 -6 0 -10 -41 -10 -103z"/>
<path d="M11230 10200 c0 -81 3 -100 15 -100 11 0 15 17 17 73 l3 72 29 -73
c15 -40 33 -71 39 -69 6 2 25 37 42 78 l30 74 3 -77 c4 -115 22 -96 22 23 0
89 -2 100 -17 97 -10 -2 -28 -31 -46 -75 -16 -40 -32 -71 -36 -68 -4 2 -20 36
-36 74 -21 52 -33 71 -47 71 -16 0 -18 -10 -18 -100z"/>
<path d="M11640 10201 l0 -101 29 0 c80 0 119 43 108 122 -7 54 -25 70 -86 76
l-51 5 0 -102z"/>
<path d="M12280 10230 c-12 -12 -20 -33 -20 -55 0 -66 67 -99 110 -53 42 45
13 128 -45 128 -14 0 -34 -9 -45 -20z"/>
<path d="M8131 10182 c-52 -26 -76 -65 -76 -122 0 -88 63 -140 168 -140 100 0
155 43 165 127 5 50 -29 116 -71 136 -47 23 -142 22 -186 -1z m205 -36 c30
-30 34 -40 34 -86 0 -46 -4 -56 -34 -86 -33 -33 -36 -34 -116 -34 -80 0 -83 1
-116 34 -30 30 -34 40 -34 86 0 46 4 56 34 86 33 33 36 34 116 34 80 0 83 -1
116 -34z"/>
<path d="M6500 9785 l0 -85 45 0 c36 0 47 4 61 25 15 23 15 27 0 50 -9 14 -12
25 -6 25 14 0 13 43 -2 58 -7 7 -31 12 -55 12 l-43 0 0 -85z"/>
<path d="M4078 8565 c-16 -9 -29 -27 -33 -46 -10 -44 19 -79 86 -104 45 -17
55 -25 57 -48 3 -21 -2 -28 -23 -33 -32 -8 -75 10 -75 31 0 10 -10 15 -31 15
-27 0 -30 -3 -24 -22 13 -44 41 -61 104 -66 54 -4 62 -2 85 21 51 51 23 110
-69 147 -36 15 -55 28 -55 39 0 45 60 56 86 16 10 -15 26 -25 40 -25 33 0 31
25 -5 61 -24 23 -38 29 -73 29 -24 -1 -55 -7 -70 -15z"/>
<path d="M4830 8435 l0 -145 25 0 c24 0 25 3 25 60 l0 60 55 0 c48 0 55 2 55
20 0 18 -7 20 -56 20 l-55 0 3 43 3 42 63 3 c54 3 62 6 62 22 0 18 -7 20 -90
20 l-90 0 0 -145z"/>
<path d="M4325 8498 c-22 -12 -45 -37 -45 -50 0 -14 47 -8 60 7 19 23 54 15
58 -12 3 -21 -1 -23 -37 -23 -49 0 -81 -27 -81 -68 0 -47 25 -61 108 -60 l72
0 0 68 c0 37 -5 82 -11 99 -16 46 -77 65 -124 39z"/>
<path d="M4500 8400 l0 -110 25 0 c23 0 24 2 27 81 3 74 5 83 25 90 39 14 53
-12 53 -97 0 -72 1 -74 25 -74 25 0 25 1 25 84 0 75 -3 88 -24 113 -23 26 -26
27 -65 17 -23 -6 -44 -7 -47 -3 -3 5 -14 9 -25 9 -18 0 -19 -8 -19 -110z"/>
<path d="M5220 8503 c-24 -9 -50 -35 -50 -50 0 -18 40 -16 61 3 22 20 59 10
59 -17 0 -15 -7 -19 -38 -19 -52 0 -82 -23 -82 -64 0 -51 23 -65 106 -64 l70
0 -4 87 c-3 76 -6 89 -28 109 -24 21 -61 27 -94 15z"/>
<path d="M5390 8400 l0 -110 25 0 c25 0 25 1 25 80 0 74 2 81 23 89 41 15 47
4 47 -85 l0 -84 31 0 32 0 -5 90 c-4 68 -10 96 -23 110 -20 22 -55 26 -85 10
-13 -7 -21 -7 -25 0 -3 5 -15 10 -26 10 -18 0 -19 -8 -19 -110z"/>
<path d="M5648 8495 c-54 -30 -61 -133 -13 -181 43 -42 134 -26 148 26 4 16 0
20 -18 20 -12 0 -28 -7 -35 -15 -29 -35 -80 1 -80 57 0 27 30 68 50 68 6 0 18
-9 27 -20 24 -27 63 -27 56 0 -8 29 -51 60 -82 60 -14 -1 -38 -7 -53 -15z"/>
<path d="M5946 8489 c-30 -23 -34 -60 -10 -80 9 -8 35 -21 58 -29 23 -9 41
-22 41 -30 0 -21 -49 -25 -65 -6 -14 18 -60 22 -60 6 0 -6 11 -22 25 -35 48
-49 155 -25 155 34 0 34 -25 59 -68 67 -40 8 -62 32 -41 45 20 13 35 11 49 -6
16 -19 60 -20 60 -1 0 23 -50 56 -85 56 -18 0 -44 -9 -59 -21z"/>
<path d="M6174 8500 c-59 -23 -74 -124 -28 -179 21 -26 33 -31 68 -31 44 0 86
27 86 55 0 20 -46 20 -54 0 -7 -20 -40 -19 -60 1 -33 32 -7 124 34 124 5 0 15
-9 22 -20 17 -26 58 -27 58 -1 0 44 -72 73 -126 51z"/>
<path d="M6383 8500 c-55 -22 -71 -127 -27 -179 22 -26 33 -31 69 -31 59 0 94
30 102 86 12 94 -61 157 -144 124z"/>
<path d="M8090 8298 c0 -75 51 -138 146 -178 51 -22 73 -21 134 8 78 37 120
98 120 173 l0 39 -200 0 -200 0 0 -42z"/>
<path d="M10250 8148 c0 -78 53 -143 144 -177 56 -21 61 -21 106 -6 92 31 150
103 150 186 l0 39 -200 0 -200 0 0 -42z"/>
<path d="M7950 7498 c0 -79 63 -151 160 -183 44 -15 51 -15 97 3 91 35 143
101 143 183 l0 39 -200 0 -200 0 0 -42z"/>
<path d="M10650 7368 c0 -79 63 -151 160 -183 44 -15 51 -15 97 3 91 35 143
101 143 183 l0 39 -200 0 -200 0 0 -42z"/>
<path d="M4270 7185 l0 -85 40 0 c55 0 80 26 80 85 0 59 -25 85 -80 85 l-40 0
0 -85z"/>
<path d="M5262 6796 c-28 -29 -29 -33 -15 -53 13 -19 13 -25 -1 -52 -49 -93
13 -181 127 -181 24 0 48 -5 55 -12 9 -9 15 -9 24 0 7 7 31 12 55 12 114 0
176 88 127 181 -14 27 -14 33 0 53 14 22 13 25 -17 53 -29 27 -34 29 -57 17
-33 -18 -54 -17 -91 1 -27 14 -32 14 -51 0 -28 -19 -65 -19 -100 -1 -25 13
-28 12 -56 -18z m73 -6 c18 -7 40 -6 70 1 33 8 53 8 76 0 23 -8 43 -8 71 0 51
13 67 1 67 -54 0 -23 3 -68 7 -99 5 -53 4 -59 -22 -83 -29 -27 -67 -32 -214
-26 -121 5 -150 32 -136 123 4 24 8 61 9 83 3 64 18 76 72 55z"/>
<path d="M5361 6232 c-52 -26 -76 -65 -76 -122 0 -88 63 -140 170 -140 99 0
148 37 162 124 8 52 -28 123 -71 141 -49 21 -143 19 -185 -3z m205 -36 c30
-30 34 -40 34 -86 0 -46 -4 -56 -34 -86 -33 -33 -36 -34 -116 -34 -80 0 -83 1
-116 34 -30 30 -34 40 -34 86 0 46 4 56 34 86 33 33 36 34 116 34 80 0 83 -1
116 -34z"/>
<path d="M11240 5768 c0 -56 34 -111 90 -149 57 -38 110 -52 147 -39 110 40
163 102 163 191 l0 39 -200 0 -200 0 0 -42z"/>
<path d="M6250 5405 c0 -68 3 -85 15 -85 10 0 15 15 17 58 l3 57 21 -55 c12
-30 27 -55 34 -55 7 0 22 25 34 55 l21 55 3 -57 c2 -43 7 -58 17 -58 12 0 15
17 15 85 0 76 -2 85 -19 85 -14 0 -25 -16 -41 -60 -12 -33 -26 -60 -30 -60 -4
0 -18 27 -30 60 -16 44 -27 60 -41 60 -17 0 -19 -9 -19 -85z"/>
<path d="M9580 5210 c0 -103 1 -110 20 -110 17 0 20 7 20 45 l0 45 45 0 c33 0
45 4 45 15 0 11 -12 15 -45 15 -43 0 -45 1 -45 30 0 29 1 30 50 30 43 0 50 3
50 20 0 18 -7 20 -70 20 l-70 0 0 -110z"/>
<path d="M9854 5239 c-27 -30 -24 -97 6 -121 27 -22 83 -24 100 -3 18 22 4 36
-25 23 -28 -13 -55 -5 -55 17 0 11 12 15 51 15 43 0 50 3 45 16 -3 9 -6 22 -6
29 0 44 -82 61 -116 24z"/>
<path d="M10000 5179 c0 -72 2 -79 20 -79 16 0 19 8 22 62 2 52 6 63 22 66 26
5 36 -15 36 -75 0 -40 4 -53 15 -53 11 0 15 13 15 54 0 56 17 83 45 72 11 -4
15 -21 15 -66 0 -53 2 -60 20 -60 18 0 20 7 20 61 0 96 -2 97 -125 97 l-105
-1 0 -78z"/>
<path d="M10277 5242 c-24 -27 -22 -97 3 -122 25 -25 71 -26 100 -2 29 23 32
93 5 122 -24 26 -86 27 -108 2z"/>
<path d="M9091 5122 c-52 -26 -76 -65 -76 -122 0 -88 63 -140 168 -140 80 0
125 23 148 74 10 23 19 52 19 66 0 46 -35 105 -73 123 -47 23 -142 22 -186 -1z
m205 -36 c30 -30 34 -40 34 -86 0 -46 -4 -56 -34 -86 -33 -33 -36 -34 -116
-34 -80 0 -83 1 -116 34 -30 30 -34 40 -34 86 0 46 4 56 34 86 33 33 36 34
116 34 80 0 83 -1 116 -34z"/>
<path d="M4121 5032 c-52 -26 -76 -65 -76 -122 0 -88 63 -140 168 -140 80 0
125 23 148 74 10 23 19 52 19 66 0 46 -35 105 -73 123 -47 23 -142 22 -186 -1z
m205 -36 c30 -30 34 -40 34 -86 0 -46 -4 -56 -34 -86 -33 -33 -36 -34 -116
-34 -80 0 -83 1 -116 34 -30 30 -34 40 -34 86 0 46 4 56 34 86 33 33 36 34
116 34 80 0 83 -1 116 -34z"/>
<path d="M7072 4686 c-27 -28 -29 -33 -16 -52 13 -18 12 -25 -1 -50 -33 -63
-9 -145 50 -170 19 -8 54 -14 78 -14 24 0 48 -5 55 -12 9 -9 15 -9 24 0 7 7
31 12 55 12 114 0 176 88 127 181 -14 27 -14 33 0 53 14 22 13 25 -17 54 -29
28 -34 29 -51 16 -25 -18 -63 -18 -99 1 -26 13 -31 13 -50 0 -27 -19 -64 -19
-99 -1 -25 13 -28 12 -56 -18z m73 -6 c18 -7 40 -6 70 1 33 8 53 8 76 0 23 -8
43 -8 71 0 51 13 67 1 67 -54 0 -23 3 -68 7 -99 5 -53 4 -59 -22 -83 -29 -27
-67 -32 -214 -26 -121 5 -150 32 -136 123 4 24 8 61 9 83 3 64 18 76 72 55z"/>
<path d="M6170 4538 c0 -26 8 -57 21 -77 l20 -34 29 34 c29 33 38 59 22 59 -4
0 -13 -5 -19 -11 -20 -20 -36 1 -17 22 21 24 60 25 72 2 11 -22 6 -41 -21 -70
l-20 -23 27 0 c42 0 26 -24 -17 -28 -43 -4 -36 -17 23 -44 62 -28 79 -30 131
-13 93 31 149 102 149 186 l0 39 -200 0 -200 0 0 -42z"/>
<path d="M5471 4422 c-52 -26 -76 -65 -76 -122 0 -88 63 -140 168 -140 80 0
125 23 148 74 24 52 23 80 -1 134 -14 31 -29 47 -54 57 -49 21 -143 19 -185
-3z m205 -36 c30 -30 34 -40 34 -86 0 -46 -4 -56 -34 -86 -33 -33 -36 -34
-116 -34 -80 0 -83 1 -116 34 -30 30 -34 40 -34 86 0 46 4 56 34 86 33 33 36
34 116 34 80 0 83 -1 116 -34z"/>
<path d="M10820 3089 c0 -79 60 -149 159 -184 46 -16 61 -14 121 13 77 36 120
98 120 173 l0 39 -200 0 -200 0 0 -41z"/>
<path d="M10523 2388 c-12 -6 -27 -24 -34 -41 -22 -51 6 -83 104 -121 29 -12
37 -20 37 -40 0 -19 -7 -27 -26 -32 -31 -8 -74 10 -74 31 0 10 -10 15 -31 15
-27 0 -30 -3 -24 -22 13 -44 41 -61 104 -66 54 -4 62 -2 85 21 51 51 22 111
-69 145 -52 20 -66 42 -45 67 19 23 58 18 76 -10 10 -15 26 -25 40 -25 33 0
31 25 -5 61 -24 23 -38 29 -73 28 -24 0 -53 -5 -65 -11z"/>
<path d="M11380 2286 c0 -87 -3 -116 -15 -126 -20 -17 -48 -9 -60 18 -14 32
-55 30 -55 -2 0 -62 114 -90 161 -40 22 24 24 35 28 145 l3 119 -31 0 -31 0 0
-114z"/>
<path d="M10765 2318 c-22 -12 -45 -37 -45 -50 0 -15 58 -8 64 8 9 24 50 14
54 -13 3 -21 -1 -23 -37 -23 -49 0 -81 -27 -81 -68 0 -47 25 -61 108 -60 l72
0 0 68 c0 77 -14 126 -40 140 -24 13 -70 12 -95 -2z"/>
<path d="M10940 2220 l0 -110 25 0 c23 0 24 2 27 81 3 74 5 83 25 90 39 14 53
-12 53 -97 0 -73 0 -74 26 -74 l26 0 -4 89 c-2 70 -7 93 -22 110 -21 23 -56
27 -86 11 -13 -7 -21 -7 -25 0 -3 5 -15 10 -26 10 -18 0 -19 -8 -19 -110z"/>
<path d="M11510 2302 c-25 -25 -30 -38 -30 -77 0 -78 30 -114 95 -115 51 0 82
21 94 66 22 79 -14 141 -88 151 -35 5 -44 2 -71 -25z"/>
<path d="M11736 2309 c-30 -23 -34 -60 -10 -80 9 -8 35 -21 58 -29 23 -9 41
-22 41 -30 0 -21 -49 -25 -65 -6 -14 18 -60 22 -60 6 0 -6 11 -22 25 -35 18
-19 35 -25 70 -25 103 0 118 106 17 126 -40 8 -62 32 -41 45 20 13 35 11 49
-6 14 -17 60 -20 60 -5 0 6 -11 22 -25 35 -30 31 -82 33 -119 4z"/>
<path d="M11959 2315 c-57 -31 -65 -139 -14 -182 46 -40 158 -22 142 22 -7 18
-28 20 -44 4 -16 -16 -54 -7 -71 19 l-14 22 71 0 c80 0 85 7 56 75 -21 52 -74
68 -126 40z"/>
<path d="M10405 1133 c-31 -7 -73 -52 -86 -90 -22 -67 12 -142 77 -169 46 -19
138 -18 181 3 39 18 72 77 73 126 0 44 -35 102 -74 121 -32 15 -124 20 -171 9z
m191 -47 c30 -30 34 -40 34 -86 0 -46 -4 -56 -34 -86 -33 -33 -36 -34 -116
-34 -80 0 -83 1 -116 34 -30 30 -34 40 -34 86 0 46 4 56 34 86 33 33 36 34
116 34 80 0 83 -1 116 -34z"/>
<path d="M3015 501 c-93 -56 -90 -192 5 -242 92 -49 199 4 200 99 l0 32 -65 0
c-51 0 -65 -3 -65 -15 0 -11 12 -15 50 -15 56 0 63 -11 30 -53 -45 -56 -144
-41 -176 27 -23 47 -12 98 28 131 31 27 50 29 132 13 29 -5 30 17 1 30 -39 18
-106 14 -140 -7z"/>
<path d="M3285 395 c-19 -18 -25 -35 -25 -65 0 -56 34 -90 90 -90 56 0 90 34
90 90 0 56 -34 90 -90 90 -30 0 -47 -6 -65 -25z"/>
<path d="M3745 408 c-32 -19 -44 -41 -45 -81 0 -66 64 -107 121 -77 16 9 19 7
19 -10 0 -21 -33 -60 -51 -60 -6 0 -24 8 -40 17 -39 23 -51 7 -16 -23 31 -26
54 -30 90 -13 37 17 47 50 47 154 0 92 -1 95 -22 95 -13 -1 -36 2 -53 5 -16 3
-39 0 -50 -7z"/>
<path d="M4015 395 c-19 -18 -25 -35 -25 -65 0 -55 34 -90 87 -90 45 1 83 24
66 41 -8 8 -17 8 -31 0 -29 -15 -57 -14 -72 4 -13 15 -14 14 104 63 17 7 16
10 -9 40 -34 41 -84 44 -120 7z"/>
</g>
</svg>
